<svg xmlns="http://www.w3.org/2000/svg" viewBox="0 0 1045.05 1273.98"><title>gorilla</title><path d="M54.66,991.9c-6.6,4.7-12.6,9.1-18.7,13.4-6-3.4-5.9-3.4-1.9-9.2,5.1-7.3,10.1-14.6,15.2-21.9-4.6-2.5-22.6,1.2-34.1,7.1-6.6-6.1-4.9-5.7-.1-9.6,12.3-10,24.9-19.5,39.7-25.7,1.1-.4,2-2.2,2.2-3.5,0.8-7.1,1.3-14.2,1.9-21.3l3.9-47.1c1.8-21,3.1-42.1,5.8-63,2.5-19.6,7.6-38.7,13.9-57.5A338.37,338.37,0,0,1,111,689.4c15.7-27.2,34.5-51.9,58.6-72.4,14.2-12,29.5-22.1,46.6-29,9.7-3.9,20.3-5.6,30.5-8,6.9-1.6,14-2.5,20.8-4.3,2.6-.7,5-2,5.9-5.7,1.3-5.3,4.2-10.2,6.9-16.5-7.3,4.6-13.3,8.6-19.5,12.2-13.7,7.8-28.3,13.3-43.4,18.1a170.56,170.56,0,0,1-70.5,7.1c-19.8-2.1-38.5-8.7-55.9-18.8-16.7-9.7-32.2-21.2-44.4-36-9-10.8-16.2-23.3-22.3-36-6.4-13.1-10.7-27.3-15.5-41.2-6.7-19.3-9.2-39.3-8.7-59.6,0.5-17.7,4.3-34.6,15.9-48.8a55.14,55.14,0,0,1,33.2-19.8c21.1-4.1,42.4-4.1,63.6-3.6,14.1,0.3,28.1,1.4,42.6,2.1,0.6-5.5,1.3-11.2,2-16.9,1.2-9.7,1.1-19.8,3.8-29.1,7.9-27,35.3-42,61.9-28.3,1.3,0.7,2.6,1.2,3.7,1.7,9.1-16.5,17.7-32.8,27-48.7,15.4-26.2,33.1-50.9,54.1-73a512.62,512.62,0,0,1,39.3-37.3c17.1-14.6,36.3-26.3,56.5-36.3a262.1,262.1,0,0,1,65.9-22.6c-3.7-8.5-7.3-16.8-11.1-25-3.2-6.7-3.3-6.6,3.2-10.2,7,8.9,14.2,17.7,21,26.8,2.9,3.9,5.9,5.5,10.7,5,7.3-.7,14.6-0.8,21.9-0.9,4,0,5.8-1.5,5.6-5.6-0.4-7.5-.7-14.9-1-22.4-0.1-2,0-3.9,0-5.8,7.6-1.2,7.6-1.2,8.8,5.6,1.4,8.1,2.6,16.3,4.4,24.3,0.4,1.8,3,4.3,4.7,4.4a228.91,228.91,0,0,1,58.7,11.6c16,5.6,31.6,12.8,46.9,20.1,7.9,3.8,14.8,9.7,22.4,14.1,15.6,9.2,29.7,20.2,43.1,32.3,23.1,20.9,43.1,44.5,60.9,70a467.14,467.14,0,0,1,40.3,69.5c1.4,2.9,2.5,4.7,6.9,2.4,21.8-11.5,45.8-3.1,57.8,18.7,5.7,10.3,6.4,21.6,7.5,32.9,0.7,7.1,1.2,14.2,1.5,21.4,0.2,3.1,1.5,3.8,4.4,3.9,19.8,0.2,39.6-.1,59.3,1.1a293.8,293.8,0,0,1,40.6,5.7c12.4,2.5,24.8,5.8,34.8,14.5,12.3,10.7,18.7,24.1,21.1,40.3,3.2,21.8-1.1,42.5-7.1,63.2a235.14,235.14,0,0,1-38.1,76c-12.7,16.9-29.4,29.6-48,39.3a217.73,217.73,0,0,1-35.6,14.9c-16,5-32.8,5.4-49.6,4.6-18.1-.9-35.1-5.7-51.8-12-7.2-2.7-13.8-7.2-20.7-10.7-2.6-1.3-5.6-2-8.2-3.4-3-1.6-5.8-3.7-8.8-5.5-1.7-1.1-3.5-2-5.3-3l-1.4,1.4a46.73,46.73,0,0,1,2.6,5.6c1.3,3.8,2,7.8,3.5,11.4,0.6,1.5,2.7,3.3,4.1,3.3,29.1,1.1,54.8,11.7,78.2,28.4,28.8,20.6,50.5,47.6,68.6,77.7a326,326,0,0,1,27.6,58.2c4.7,13.1,7.8,26.8,11.7,40.1,6.4,21.8,7.6,44.3,9.5,66.7,2,24.2,4.1,48.3,6.1,72.5q0.75,9.15,1.2,18.3c0.1,2.9.9,4.7,3.9,6,14.7,6.3,27.3,15.9,39.6,25.9,2.2,1.7,3.8,3.3,1.7,6.6-2,3.1-3.4,2-5.9.8-9.7-4.5-20.1-6-32-6.9,1.4,2.2,2.2,3.5,3,4.7,5.2,7.2,10.5,14.4,15.5,21.7,0.6,0.8.1,3.5-.6,3.9-1.5.9-4.1,1.7-5.2,1-5.8-3.8-11.2-8.1-18-13.1,0,10.2.4,18.6-.1,27-0.9,15-1.9,30.1-3.7,45-1.8,14.4-4.5,28.7-7.1,43.1-2.5,13.6-8,26.2-14.1,38.5-1.5,3-2.3,5.4-1.2,8.9,5.6,17.8,4.5,35.9-.2,53.6-3.9,14.6-10,28.4-21.2,39.3-6.9,6.6-14.8,9.9-24.3,8.4a9.71,9.71,0,0,0-8.5,2.3c-9.8,8.3-21.7,7.3-30.5,1.5-6.7,7.7-13.5,14.9-25.1,14.9s-18.8-6.3-24.9-15.3c-6.9,8.8-15,15.5-26.2,14.3-21.1-2.3-27.4-18.2-30.9-36.7-7.4,2-14.2.7-18.6-5.5-3.8-5.4-6.6-11.5-9.9-17.5-5.9,8.3-13.6,15-23.6,18.4-6.3,2.1-12.6,4.7-19.6,1.6-1.5-.7-4.2.1-5.9,1-9.3,4.9-18.7,5.8-28.5,1.3-1.5-.7-4,0.1-5.8.8-6.5,2.3-12.8,6.3-19.4,6.8-8,.6-16.8-0.7-22.9-7.3-3.5-3.7-6.4-3.5-10.1-.8-12.1,8.9-34.2,6.1-42.7-4.2-3-3.7-4.9-8.4-6.9-12.8-1.1-2.5-1.8-3.9-5.3-3.5-9.9,1.2-18.8-5.5-22-15.3-7.9-24.3,8.1-50.1,28.5-57.4,1.6-.6,3.1-1.7,4.2-2.2-2-9.3-3.9-18.4-5.8-27.6h-61.6c-1.8,9.1-3.6,18.1-5.5,27.7,3.5,1.8,7.9,3.7,12,6.2,10.3,6.4,16.9,15.7,20.6,27.2a39.67,39.67,0,0,1,.2,24.8c-4.1,13-11.8,18.2-25.5,16.6a23.43,23.43,0,0,0-2.3,5.1c-4.4,19.8-30.4,25.2-44,18.3-7.3-3.7-11.8-4.7-19.3.7-10.9,7.8-23.8,6.7-35.5-.7-3.6-2.3-6.3-3.1-10.8-1.3-8.8,3.4-17.8,2.4-26.3-2.2-1.6-.9-3.9-1.5-5.5-1-11.6,3.7-21.5-.6-30.3-7.1-5.7-4.2-9.9-10.2-14.9-15.4a5.1,5.1,0,0,0-1.1-1c-3.1,6.7-5.7,13.6-9.4,19.8-4.3,7.1-11.4,8.8-18.9,7.3-2.6,7.2-4.5,14.1-7.6,20.5-3.9,8.1-10.7,12.8-19.6,14.9-12.2,2.9-20.9-2.2-28.5-10.8-0.6-.7-1.5-1.2-2.5-2.1-3.8,5.6-8.3,10.5-15.1,13-10.2,3.8-19.3,1.7-26.8-5.3-4.8-4.4-7.9-8.2-15.7-4.6s-16,.9-22.7-5.1a8.31,8.31,0,0,0-6.1-2.1c-15.4,2.6-25.9-5.1-33.7-16.8-16.6-25.4-21.9-53.2-14.6-82.8,1.2-4.9.5-8.3-1.6-12.4a149.14,149.14,0,0,1-15.2-46c-1.9-12.7-4.6-25.3-5.6-38.1-1.7-20.8-2.4-41.7-3.5-62.6A31.92,31.92,0,0,0,54.66,991.9Zm486-60.5c13.3,0.8,26.5-3.3,38.8-10.9,14.6-9,23.2-22.6,29.2-38.2a5.57,5.57,0,0,1,3-3.2c9.8-3.3,19.7-6.2,29.4-9.6,28.5-10,54.6-24.4,77.5-43.9,21.7-18.4,39.9-40,51.8-66.1,5.6-12.2,9.5-25.2,13.3-38.1a131.71,131.71,0,0,0,5-27.2,335,335,0,0,0,.1-37.5,162.67,162.67,0,0,0-3.6-26c-2-9.4-5-18.6-7.4-27.9-1.3-5.1-2.1-10.3-3.6-15.3-0.7-2.5-2.2-4.7-3.4-7.1-2.5-4.9-4.7-9.5-5.4-15.3-0.6-5-5.2-9.5-7.8-14.3-6.4-11.5-12.3-23.3-19-34.6-2.3-3.9-1.5-6,1.1-9,6.9-7.7,14.1-15.2,19.9-23.7a185.28,185.28,0,0,0,26.6-58.4c4.1-15.6,4.9-31.6,6.4-47.5,0.4-4.3-.9-8.8-1.5-13.2-1.2-9.8-2.1-19.7-3.8-29.5-3-17.8-10-34.3-18.8-50a170.26,170.26,0,0,0-46.5-53.4,147,147,0,0,0-44.8-23.2c-12.5-3.9-25.2-6.9-38.3-6.8a243.63,243.63,0,0,0-30.8,1.8,119.09,119.09,0,0,0-25.8,5.8c-18.3,6.7-35.3,15.9-49.8,29.1-2.3,2.1-4.1,2.3-6.3,0a161.77,161.77,0,0,0-61.3-39.3,140.06,140.06,0,0,0-43.7-8.5c-15.5-.5-30.7,2.1-45.6,6.8a143.94,143.94,0,0,0-52.5,29.7c-8.6,7.6-16.1,16.5-23.9,25.1-12.1,13.5-20.6,29.4-27.7,45.9a294.59,294.59,0,0,0-13.2,39.1c-3.2,11.7-6.2,23.8-6.6,35.9-0.5,12.4-2.9,24.8-.8,37.4,1.5,9.3,1.6,18.8,2.2,28.2,1.2,18,6,35.3,11.8,52.2,6.2,18.1,14.2,35.4,25,51.3,2.1,3.2,3.4,6.2.9,10-1.9,2.8-3,6.1-4.3,9.3-7.5,18.2-14.7,36.4-19,55.7-3.2,14.4-6.9,28.7-7.2,43.7-0.1,3.7-1.2,7.4-1.6,11.2a37.59,37.59,0,0,0,0,7.5c0.5,6.4,2,12.8,1.4,19.1-0.5,5.1,3.2,9.4,2.5,13.9-0.3,1.8,1.4,3.3,1.8,5.1,1.1,5.3,1.6,10.7,3.2,15.9,1.1,3.5,4.1,6.3,5.5,9.8,10.8,27,28.1,49.5,49.4,68.9,24.3,22.2,52.2,38.7,82.9,50.6a370.07,370.07,0,0,0,55.5,16.9c3.5,0.8,8.1-.2,10.1,5.9a60.6,60.6,0,0,0,16.9,26.3C502.26,924.9,519.36,932,540.66,931.4Zm175-88.8a12,12,0,0,0-2.1,1.6C694.16,868.6,668,882,639,891c-5,1.6-10.8,2-13.7,8.5a91.86,91.86,0,0,1-11.9,19.4c-13,16.3-29.6,26.7-50.4,30.2-12.3,2.1-24.6,3-36.2-2.1-8.4-3.7-16.1-9-24.3-13.2-18-9.4-31.5-22.9-39.8-41.5a6.45,6.45,0,0,0-3.2-3.3c-15.4-4.5-31-8.3-46.3-13.2-24.2-7.8-46.6-19.4-67.9-33.4-6.5-4.3-6.6-4.6-11.3,1.1-11.2,13.4-21.1,27.4-22.4,45.6-0.6,8.2-1.7,16.5-1.3,24.7,0.7,14.4,2.4,28.7,3.9,43,0.3,3.2.9,7,2.9,9.2,9,9.8,17.7,20,28,28.4a200.79,200.79,0,0,0,34.3,22.5,286.43,286.43,0,0,0,42.4,17.9c13.4,4.4,27.4,6.8,41.3,9.5,11.9,2.3,23.9,5.1,35.9,5.3,21.9,0.4,43.8-1,65.7-1.6,0.9,0,1.9-.7,2.8-0.9l21.9-3c3.4-.5,7-0.7,10.3-1.6a104.55,104.55,0,0,0,10.6-4c16.1-5.9,32.6-11.2,48.3-18,10.3-4.5,19.8-10.9,29.3-17a136.75,136.75,0,0,0,35.6-31.8,13.48,13.48,0,0,0,2.1-6.3c1.5-10.6,2.7-21.3,4.4-31.9,0.2-1.3-.8-2.3,0-3.8s-2.1,1.1.4-1.6c-2.1-1.7.2-1.8,0.3-2.3-1.4-.9.6-1.9,0.1-2.8-5.8-10.5-1.6-2.4-.9-6.7a22.17,22.17,0,0,0,.4-3.9c2.8-.8-2.2-1.6,1.4-2.6-4.9-4.6-7.5,4.9-2.1,1.3,0.3-.2,1.4-0.8.8-1.3-0.8-.8,4.4-5,3.3-5.2-0.8-.1.2-5.6,0.6-9.5C733.86,875.6,725,859.4,715.66,842.6Zm160.8-468c0.5,0,1-.1,1.5-0.1-1.7-23.9-3.7-47.8-5.1-71.7a66.6,66.6,0,0,0-4.2-21.2c-5.2-13.4-23-28.2-42-21-13.2,4.9-25.6,20.5-25.4,34.7,0.1,8.2,1.7,16.4,1.6,24.6-0.5,30,2.3,60.1-1.6,90.1-0.9,7.4.1,15-.6,22.5-0.8,9-2.4,17.9-3.4,26.8-1.4,12.2-2.4,24.4-3.7,36.6a87.53,87.53,0,0,1-2.1,13.6c-2.8,9.7-1.3,18.8,1.8,28.1,3.2,9.6,12.1,14,17.9,21.2a3.31,3.31,0,0,0,2.3.6c3.8,0,7.7-.3,11.5,0,17.3,1.2,30-14.8,34.4-27.8,2.8-8.4,2.3-17.7,7.4-25.6,0.6-.9.1-2.5,0-3.7a25.72,25.72,0,0,1-.2-4.8c0.6-4.1-.3-8.1,3.1-12.3,2.4-2.9.4-9.1,0.9-13.8,1.1-10.4,2.7-20.7,3.8-31.1,1-9.7,1.7-19.4,2-29.1C876.66,399,876.46,386.8,876.46,374.6Zm-637.8-72.1a41.77,41.77,0,0,0-5.9-25.2c-5.5-9.6-13.7-16.4-24.6-18.2-16.1-2.7-27.9,7-35,18.4-6.3,10-5.6,21.5-7.5,32.4-1.7,9.6-1.8,19.5-1.7,29.3,0.2,35.8-2.1,71.7,3.2,107.4,1.5,10,2.4,20.2,3.9,30.2,1.7,11.9,3.5,23.8,5.7,35.6,1.5,7.9,2.8,15.9,5.7,23.3,4.5,11.6,12.8,20.7,25.2,23.1,23,4.6,39-11.1,41.8-31.8,1.2-9-.8-18.5-1.9-27.6-1.3-11-3.4-21.8-4.8-32.7-1.5-11.7-2.8-23.5-3.8-35.3-0.9-10.9-1.9-21.8-1.9-32.6C237,366.6,235,334.51,238.66,302.51Zm40.4,926c0.7,0.2,1.4.3,2.2,0.5,2.5-2.9,6.1-5.3,7.3-8.7,4.3-11.7,6.9-23.5,4.7-36.4-1.9-10.9-4.7-21.2-9.9-30.8-3.9-7.2-8.6-14-16.7-18-11.7,29.4-32,48.4-63.9,54.4,3.8,5.8,1.1,8.9-4.7,11.9a71.56,71.56,0,0,0-5.9-6.8c-1.3-1.2-3.3-1.7-4.9-2.6-0.4,1.7-.9,3.3-1.2,5a4.5,4.5,0,0,0,0,2c1.1,3.3-.5,4.9-3.5,5.7-3.4,1-5.4-.6-6.5-3.6s-2.1-6.1-3.3-9.6c-7.2-.5-14.4-1.1-21.7-1.6a10.8,10.8,0,0,0-.8,2.4c0,4.5-.1,9,0,13.5,0,3.4-1.8,4.7-4.9,4.9-2.9.2-4.5-.4-5-3.8-0.6-4.2-2.1-8.3-3.6-14-2.1,3.7-3.7,5.9-4.5,8.3-1.2,4-3.8,4.2-7,3.4-4-.9-4.1-4-3.4-7.1,1-4.1,2.3-8.1,3.5-12.5-14.4-4.3-25.9-12.8-36.3-25-0.8,3.3-1.7,5.4-1.8,7.5-0.4,13.4-.6,26.6,3.6,39.7,4.2,13.3,10.1,25.4,20.4,34.9,6.4,5.9,12.3,6.6,19.6,2.1,3.1-1.9,4.5-.4,6.2,1.6,4.4,5.2,9.4,9.9,16.8,8.2,4.2-.9,8-3.6,11.8-5.8,2.4-1.4,4-2,5.6,1a46.18,46.18,0,0,0,5.2,7.3c8.6,10.5,22,11.7,30.4-.3,3-4.4,5.9-8.9,9.4-14,2.7,4,4.9,7.2,7,10.5,6.3,9.6,16,13.1,25.7,9.2,8.7-3.5,11.9-11,13.7-19.3,2.2-9.7,4-19.6,6.1-29.4,0.2-1,1.6-1.8,2.4-2.7a15,15,0,0,1,1.9,2.5C275.16,1218.3,277.06,1223.4,279.06,1228.5Zm494.5-94.6c-3.8,3.6-7.2,6.1-9.8,9.4-10.2,12.8-16.1,27.4-16.7,43.8-0.4,10.8-.6,21.5,4,31.6a22,22,0,0,0,4.2,6.5c4.3,4.2,5.3,3.9,7.7-1.7,0.7-1.6.9-3.7,2-4.9,2.3-2.4.3-7.8,5.4-8.3,0.9,3.7,1.8,7.1,2.6,10.6,2,9.1,3.6,18.3,6.2,27.2,1.6,5.4,4.6,10.7,10.4,13.2,10.5,4.6,19.3,2,26.8-8.2,2.4-3.2,4.6-6.7,7.2-10.7,1.4,1.8,2.4,3,3.3,4.3,2.4,3.5,4.6,7.3,7.3,10.6,6.7,8.3,16.4,10.5,25.2,3.2a46.47,46.47,0,0,0,8.6-10.1c2.4-3.6,4.2-4.3,7.9-1.5a26,26,0,0,0,10.5,4.9c7,1.4,12-2.6,16.1-7.7,2.3-2.9,4.2-4.1,7.7-1.4,4,3,8.4,2.8,13,.5,8.4-4.2,13.8-11.1,18.1-18.9,6.8-12.4,11-25.6,11.4-39.9,0.1-3.6,1.5-7.1,1.4-10.6-0.1-4.1-1.1-8.1-1.7-12.2-0.2-1-.6-2-1-3.4a22.19,22.19,0,0,0-2.4,1.9c-8,9.8-17.8,17-30,20.8-2.2.7-3.8,2.3-3.1,5.3,0.9,3.3,1.1,6.8,2.1,10,1.1,3.4.3,5.3-3.1,6.2s-5.6-.6-7-3.6c-1.3-2.8-2.8-5.5-4.4-8.6-1.3,5.3-2.7,9.9-3.6,14.6-0.8,4-3.3,4.2-6.3,3.4s-4.5-3.2-3.8-6.5a34.41,34.41,0,0,0,1-6.3c0-6.5-1.1-7.5-7.3-7.3-2.7.1-5.5-.5-8,0.2a25.56,25.56,0,0,0-9.3,4.3c-1.5,1.2-1.7,4.1-2.2,6.4-0.7,3-2.6,4-5.5,3.6s-5-1.7-4.8-5.2c0.1-2.5,0-5.1,0-7.6-0.5-.1-1-0.3-1.5-0.4-2.7,2.3-5.4,4.6-8.2,6.8-3.3,2.7-7.8,1.3-8.3-2.7-0.2-1.8.8-3.7,1.3-6.2C806,1183.3,785.26,1164.7,773.56,1133.91ZM161,483.9c-1,.8-1.3,1.2-1.7,1.5-10.7,11-28.9,8.4-36.6-5.2-6.1-10.8-6.1-22.8-8.1-34.5-1.4-8.3-1.3-16.8-2.2-25.2-0.3-2.8-1.1-6.1-5.4-5.4-10.3,1.8-20.8,3.3-31,5.6-10.7,2.5-21.1,15.6-21.8,26.7-0.5,7.4-1.9,14.6-.7,22.5a141.53,141.53,0,0,0,12.8,40.8c6.9,14.1,16.5,26,30.2,34,8.9,5.2,18,10.4,27.6,14.1,7.5,2.9,16,3.5,24.1,4.8,13.6,2.3,26.9.3,41.2-2.9-2.1-1.8-3.4-2.8-4.6-4-7.2-7.3-12.5-15.9-14.6-25.9-3-14.5-5.1-29.1-7.6-43.7C162.36,486.3,161.56,485.3,161,483.9Zm711.4,26.9c1.1,9.2-1.5,18.4-4.8,26.7-3.4,8.6-9.8,16-14.9,24.1,3.4,0.5,7.6,1.2,11.8,1.9a106.13,106.13,0,0,0,54.2-4.6c22.5-8.2,41.5-21.4,52.9-43.4,9.8-18.9,18.8-38,14.6-60.5-2.6-13.7-9.8-23.1-22.6-28.2-3.5-1.4-6.9-3-10.3-4.4-0.7-.3-2-0.7-2.3-0.4-2.8,3.2-4.8.4-7.1-.8-1.4-.7-3.1-1.6-4.6-1.5-3.7.3-7.4,1-10.6,1.5-1.3,4.4-2.5,8.6-3.8,12.7-2.1,6.9,2.8,15-3.3,21.3a0.45,0.45,0,0,0,0,.5c4.6,5.7-1.4,10.8-1.3,16.5,0.1,8.6-6.6,14.8-14.4,18.5a16.39,16.39,0,0,1-10,1.1c-2.5-.6-4.3-3.8-7.7-1.7-0.4.2-2.9-1.6-3.1-2.7-0.8-3.6-3.3-4.4-5.8-3.3s-4.6,3.1-2.8,6.7c0.7,1.4.4,3.4,0.3,5.2a38.57,38.57,0,0,1-1.2,5.7C874.36,504.8,873.26,507.9,872.36,510.8Zm-74.6-236.2c2.5-3.5,4.8-6.3,6.6-9.4,0.8-1.4,1.2-3.7.5-5.1A477.49,477.49,0,0,0,742,159.4a356.78,356.78,0,0,0-80.9-73.2c-8.2-5.4-16.4-11-25.1-15.6-7.5-4-15.7-6.5-23.5-9.8A222.31,222.31,0,0,0,555.66,45a284.57,284.57,0,0,0-48.8-2.4,271.9,271.9,0,0,0-46.6,6.3c-12.7,2.8-25,7.8-37.2,12.6C406,68.1,390,77,374.66,87.2c-24.2,16.1-45.5,35.7-64.8,57.2-31.2,34.7-55.4,74.2-75.5,116.2a4.55,4.55,0,0,0,.5,3.9c2.2,3.4,4.7,6.6,6.8,9.4,9.6-17.2,19.1-34.8,29.1-52.1a396.94,396.94,0,0,1,61.5-80.4,317.58,317.58,0,0,1,67.9-53c30.3-17.5,62.7-28.8,97.4-32.3a230,230,0,0,1,92.8,9.6c24.5,7.8,47.2,19.5,68.4,33.8,23.5,15.8,44.2,34.8,63,56C753.16,191.11,777.26,231.11,797.76,274.6ZM482,1147.4c-4.5,10.1-11.9,17.5-20.3,23.6-9.7,7.2-20.9,11.6-32.8,14-3.1.6-6.5,1.3-7.9,5.5-1.3,4-4.1,4.5-7.8,2.1-2.8-1.8-6.1-3-10-4.8,1.2,6.4.4,8.3-3.2,9.7-4.2,1.6-5.2-1.8-7.1-4.3a8.86,8.86,0,0,0-5.9-3.3c-6.1-.4-12.2-0.2-18.9-0.2,0,2.4-.2,5.2,0,8,0.4,4.2-3.3,4.3-5.6,5-1.2.4-3.7-1.5-4.7-3-1.5-2.2-2.1-5-3.4-8.4-1.9,2.6-3.4,4.4-4.7,6.4-2,3.2-4.9,2.7-7.5,1.6-2.4-1.1-3.6-3.1-2.1-6.1,0.9-1.8.8-4,1.1-6-13.5-1.6-24.6-8.2-35.8-14.5-3.1,17.8,2,32.1,14.8,43.6,8.7,7.8,18.5,10.9,30.1,7.1,1.7-.6,4.4.1,6,1.2,7.8,5.3,16.4,6.3,24.2,1.8,6.3-3.5,9.9-1.2,14.1,2.4,0.4,0.3.7,0.7,1.1,1,7.1,6.5,23.7,6.4,29.9-1,2.9-3.4,6.1-6.4,9.3-9.8,9,8,17.6,15.1,30.6,11.6,6.7-1.8,12.4-4.2,15.1-11,1.4-3.5,2.5-7.2,3.6-10.8,1.3-4.4,2.5-8.9,3.7-13.4h1.7c1.5,2.7,2.9,5.4,4.6,8s3.3,3.9,6.8,1.9c7.2-4.1,12.2-15,10.3-23.7C508,1165.1,498.46,1153.7,482,1147.4Zm126.3,71.3c2.7,2.7,5,4.8,7,7.2,10,11.8,26.4,10.6,36.8.6,2.9-2.8,5-3.3,8.8-1.2,7.5,4.3,15.8,4.8,23.6.8,4.1-2.1,7.6-4.5,12.3-1.7,0.6,0.4,1.6.1,2.5,0.2,11.2,1.4,20-3.6,27.3-11.3,6.7-7,11.6-14.8,10.4-25.2-0.3-2.9.4-5.9,0.8-8.9,0.3-2.3.8-4.6,1-6-11.9,5.2-23.6,10.3-35.9,15.6a24.38,24.38,0,0,0,1,3.9c1.1,3,.2,5.3-2.7,6.5-2.7,1-5.4,1.6-7.1-2.1-0.9-1.9-2.8-3.4-4.2-5.1-3.9,3.3-1.7,11.2-8.3,10.8-9-.6-4.6-8.8-5.9-13-6.7,0-12.8-.2-18.9.1a8,8,0,0,0-5.6,3c-4.3,6.3-4.1,6.4-11,2,0.1-1.9.2-3.8,0.5-7.4-4.2,2.2-7.4,3.7-10.4,5.4s-5.4,2.1-6.7-1.6-4.4-5-7.5-6.1c-2.9-1-6-1.5-9-2.3-10.3-2.8-20-7-27.8-14.3-6.7-6.2-12.4-13.4-18.7-20.4-18.6,7-28,21.3-27.3,41.9,0.2,6.6,2.8,11.4,8.7,14.8,3.9,2.3,6,1.2,7.8-2.3,1.3-2.5,2.9-4.9,5.1-8.6,1.3,3.3,2.2,5.1,2.8,7.1,1.9,6.2,3.4,12.7,5.7,18.8,2.7,7.2,16.8,13.7,23.4,11.9C594.86,1229.4,602.16,1225.8,608.26,1218.7ZM245.66,346.9c4.6-14.3,9-29.3,14.3-44a192.07,192.07,0,0,1,25-46.6c2.3-3.2,4.7-6.4,6.1-10.1,2.9-7.6,5.2-15.5,7.7-23.2,5.2-16,13.5-30.5,23.2-44a216.62,216.62,0,0,1,58.4-55.3,246.26,246.26,0,0,1,104-38.2c3.5-.4,4.9-1.7,3.3-5.2a71,71,0,0,1-2.8-6.9c-2.4-6.8-3.2-7.3-10.2-5.9a238,238,0,0,0-45.8,14.9c-33.7,14.8-62.9,36.3-88.8,62.1-11.3,11.2-21.6,23.5-31.6,36-23,28.7-41.2,60.4-57.3,93.4a41.77,41.77,0,0,0-4.5,20.9c0.5,11.8-.7,23.6-1,35.4C245.46,336,245.66,341.71,245.66,346.9Zm546.4-27.8a5.44,5.44,0,0,0,.9-1.6c0.2-10.6.4-21.3,0.5-31.9a11.6,11.6,0,0,0-1.2-4.3c-2.8-5.9-5.3-12-8.5-17.6-11.1-19.7-21.8-39.8-34-58.8a341.78,341.78,0,0,0-51.6-62.8c-21.3-20.2-43.7-38.9-70.3-52.1-19.4-9.6-39.3-17.7-60.5-22.2-8.2-1.7-16.5-2.8-26.3-4.4,1.7,5.1,3.7,9.1,4.3,13.3,0.9,5.8,4.7,7.6,9.6,8.4,5.2,0.9,10.5,1.5,15.6,2.5,7.1,1.4,14.2,2.7,21.1,4.6a144.93,144.93,0,0,1,33.4,13.1c6.4,3.5,13.9,5.1,20.4,8.7a241.64,241.64,0,0,1,41.8,29.3,201.18,201.18,0,0,1,59,87.2c3.4,9.7,6.8,18.6,13.5,26.7C774.76,275.1,785.06,295.9,792.06,319.1Zm128.7,77.2h-1c0-6.7.3-13.3-.1-20a146,146,0,0,0-2-19.8,16.68,16.68,0,0,0-13.7-13.6c-4.8-1-12.1,3.2-14,8.9a42.88,42.88,0,0,0-1.9,13.9c0,27.3.8,54.6-3.7,81.6-1,6.1-2.1,12.2-2.2,18.4-0.2,14.8,10.8,21.6,23.1,16.5,1.7-.7,3.7-2.4,4.1-4,3-12.1,6.5-24.2,8.1-36.5C919.36,426.51,919.66,411.3,920.76,396.3Zm-768.5-7.9H152c0-10.6.4-21.3-.2-31.9-0.3-5.8-4.2-10.1-9.7-12.5-5.7-2.5-10-.4-14.5,3.2-6.4,5.2-6.1,12.6-6.6,19.4-2.8,35.2-1.1,70.2,7,104.8,1.3,5.7,8.5,12,14,12.2,9.7,0.4,16.9-8,15.8-18.8-1.6-14.8-4.1-29.5-5.3-44.3C151.56,409.8,152.26,399.1,152.26,388.4Zm637.1,61.4c-7,12.5-14.2,25.5-21.7,38.3-2,3.4-3.4,6.3-1.6,10.3,3.3,7.6,6.6,15.2,13.7,21.7C783.16,495.71,786.36,472.21,789.36,449.8Zm-509.6,683.5c-2.1-7.3-4.1-14.1-6.1-20.9-0.5-.1-0.9-0.1-1.4-0.2-1.1,4.3-2.3,8.5-3.3,12.8-0.1.5,1.1,1.4,1.8,1.9C273.56,1128.91,276.46,1130.91,279.76,1133.3Zm242.1-1054V63.71h-12.7C513.46,68.9,517.16,73.5,521.86,79.3ZM805.16,566c-0.1-.3-0.1-0.7-0.2-1-5.4-5.8-10.7-11.6-16.2-17.3-0.5-.5-1.7-0.4-2.6-0.6,0,1-.4,2.3,0,3,3.5,4.4,6.8,9,10.9,12.8C799.16,564.71,802.46,565,805.16,566Zm-546.4-62.4c-0.3,0-.6.1-0.8,0.1,0.9,6.3,1.8,12.6,2.8,20.3,1.5-3.3,3.8-5.9,3.4-8C263.16,511.71,260.66,507.71,258.76,503.6Zm506.5,625.3c6.1-2.5,7-2.5,3.5-9.6C767.66,1122.2,766.56,1125.1,765.26,1128.91Zm189.9-718.8c-0.7-.3-1.3-0.6-2-0.9a56,56,0,0,0-2.7,5.5c-0.1.2,1.7,1,2.5,1.6C953.76,414.21,954.46,412.21,955.16,410.1Z"/><path d="M540.66,931.4c-21.3.6-38.3-6.5-53-19.6a60.6,60.6,0,0,1-16.9-26.3c-2.1-6.2-6.6-5.2-10.1-5.9a382.07,382.07,0,0,1-55.5-16.9c-30.7-11.9-58.6-28.4-82.9-50.6-21.3-19.4-38.6-41.9-49.4-68.9-1.4-3.5-4.4-6.3-5.5-9.8-1.6-5.1-1.6-9.6-3.2-15.9-0.5-1.7-1-2.5-1.8-5.1a100.62,100.62,0,0,1-2.5-13.9c-0.9-7-.9-12.7-1.4-19.1a37.59,37.59,0,0,1,0-7.5c0.4-3.7,1.6-7.4,1.6-11.2,0.3-14.9,3.9-29.2,7.2-43.7,4.3-19.3,11.5-37.5,19-55.7,1.3-3.2,2.4-6.5,4.3-9.3,2.5-3.8,1.3-6.8-.9-10-10.8-15.9-18.8-33.2-25-51.3-5.8-16.9-10.7-34.2-11.8-52.2-0.6-9.4-.6-18.9-2.2-28.2-2.1-12.6.4-25,.8-37.4,0.5-12,3.5-24.2,6.6-35.9a280.84,280.84,0,0,1,13.2-39.1c7.1-16.5,15.6-32.4,27.7-45.9,7.7-8.6,15.3-17.5,23.9-25.1a143.94,143.94,0,0,1,52.5-29.7,133.92,133.92,0,0,1,45.6-6.8,140.05,140.05,0,0,1,43.7,8.5,161,161,0,0,1,61.3,39.3c2.2,2.3,4.1,2.1,6.3,0,14.5-13.3,31.6-22.4,49.8-29.1a119.09,119.09,0,0,1,25.8-5.8,263.81,263.81,0,0,1,30.8-1.8c13.1,0,25.7,2.9,38.3,6.8a144.78,144.78,0,0,1,44.8,23.2,170.26,170.26,0,0,1,46.5,53.4c8.7,15.7,15.7,32.2,18.8,50,1.6,9.8,2.6,19.6,3.8,29.5,0.6,4.4,1.9,8.9,1.5,13.2-1.5,15.9-2.4,31.9-6.4,47.5a186.3,186.3,0,0,1-26.6,58.4c-5.8,8.5-13.1,16-19.9,23.7-2.7,3-3.5,5.1-1.1,9,6.7,11.3,12.7,23.1,19,34.6,2.6,4.8,6.2,9.5,7.8,14.3,1.9,5.7,2.9,10.5,5.4,15.3,1.2,2.3,2.7,4.6,3.4,7.1,1.4,5,2.2,10.2,3.6,15.3,2.4,9.3,5.4,18.5,7.4,27.9a164.24,164.24,0,0,1,3.6,26,312.78,312.78,0,0,1-.1,37.5,126.51,126.51,0,0,1-5,27.2c-3.8,12.9-7.7,25.9-13.3,38.1-11.9,26-30.1,47.7-51.8,66.1-23,19.5-49.1,33.9-77.5,43.9-9.7,3.4-19.6,6.3-29.4,9.6a5.9,5.9,0,0,0-3,3.2c-6,15.6-14.6,29.2-29.2,38.2C567.16,928,553.86,932.2,540.66,931.4Zm-9.8-654c-2.8-3.2-5.8-6.9-9-10.3-15.6-17-33.5-31.1-55.2-39.3-11.7-4.5-24-8.7-36.4-10-15.8-1.6-31.9-1.2-47.8,3.1a147.52,147.52,0,0,0-86.8,65.9,265.16,265.16,0,0,0-19.6,40.5c-4.5,12-6.9,24.9-9.5,37.6a155.41,155.41,0,0,0-3.5,27.9,237.81,237.81,0,0,0,1.7,33.7,272.13,272.13,0,0,0,6.3,36.8,200.46,200.46,0,0,0,26.9,61.2c9.2,14.1,19.5,27.1,32.3,38.1,13.8,11.9,28.7,22.1,46,28.3,9.2,3.3,18,8.4,28.4,5.7a6.17,6.17,0,0,1,2.4.2c9.4,2,9.6,2.3,17.3,2.1a28.32,28.32,0,0,0,4.2.7c5.4-1.1,10.7-2.1,15.8-3.1a83.69,83.69,0,0,0,3.4,8.3,92.17,92.17,0,0,0,32.1,35.5c11.5,7.5,23.5,14,36.5,18.3,15.4,5.1,31.3,6.1,47.3,5.3,20.3-.9,38.5-8.1,53.2-21.8,17.2-16,27.3-35.7,26.4-60-0.3-6.5.4-13.2-1.2-19.4-3.1-11.9-7.5-23.5-10.9-34,5.9-.6,12.5-1.8,19.1-1.7,10.9,0.1,21-2.9,31.3-5.9,23.2-6.7,42.8-19.5,59.6-36.5a149.53,149.53,0,0,0,34.7-56.2,144.91,144.91,0,0,0,8.2-41.5,160.23,160.23,0,0,0-1.8-31.7,191.64,191.64,0,0,0-7.3-31.7c-5.5-17.3-14.9-32.7-26.7-46.3-15.7-18-34.4-32.3-57.1-40.7-16.7-6.2-34-10.3-51.9-10-14.7.2-29,3.1-43,7.6a129.79,129.79,0,0,0-43.5,23.7C545.26,263.8,538.36,270.51,530.86,277.4Zm7.6,604.4a67,67,0,0,0,38.3-8.3c11-6.1,11.1-18.3,2-24.7-10.1-7.1-21.6-9.2-33.3-10.1-8.6-.6-17.6.4-26.2,1.9-9.1,1.6-18.1,4.4-24.3,12.3-3.3,4.2-5.1,8.7-1.3,13a41.41,41.41,0,0,0,11.6,9.7C515.86,881,527.36,882.6,538.46,881.8Z" style="fill:#fff"/><path d="M730.16,933.6c-1.7,10.6-2.9,21.3-4.4,31.9-0.3,2.2-.8,4.7-2.1,6.3-9.9,12.8-22.1,23.1-35.6,31.8-9.5,6.1-19,12.5-29.3,17-15.8,6.8-32.2,12.1-48.3,18-3.6,1.3-7,3-10.6,4a69.11,69.11,0,0,1-10.3,1.6l-21.9,3c-1,.1-1.9.8-2.8,0.9-21.9.7-43.8,2-65.7,1.6-12-.2-24-3-35.9-5.3-13.9-2.7-27.9-5.1-41.3-9.5a277.72,277.72,0,0,1-42.4-17.9,204.79,204.79,0,0,1-34.3-22.5c-10.2-8.4-19-18.6-28-28.4-2-2.2-2.5-6-2.9-9.2-1.5-14.3-3.2-28.6-3.9-43-0.4-8.2.7-16.5,1.3-24.7,1.3-18.2,11.2-32.3,22.4-45.6,4.8-5.7,4.8-5.4,11.3-1.1,21.2,14,43.6,25.6,67.9,33.4,15.3,4.9,30.9,8.7,46.3,13.2a6.09,6.09,0,0,1,3.2,3.3c8.3,18.6,21.9,32.1,39.8,41.5,8.2,4.3,15.9,9.6,24.3,13.2,11.6,5,23.9,4.1,36.2,2.1,20.8-3.5,37.5-13.9,50.4-30.2a87.93,87.93,0,0,0,11.9-19.4c2.9-6.5,8.7-6.9,13.7-8.5,29-9.1,55.2-22.4,74.6-46.8a12,12,0,0,1,2.1-1.6c9.3,16.8,18.1,33,18.8,52.7,1.5-.5-0.8-0.1,0,0m-405.8,56.8h0c0,5.2.1,10.3,0,15.5-0.1,3.2.9,5,4.5,4.9q15.45-.15,30.9,0c3.2,0,4.5-1.4,4.4-4.5-0.1-10.3-.1-20.6-0.1-30.9,0-3.2-1.5-4.5-4.6-4.5h-30.9c-3.2,0-4.4,1.5-4.3,4.6C329,942.2,328.86,947.2,328.86,952.2Z" style="fill:#fff"/><path d="M238.66,302.51c-3.7,32-1.7,64.1-1.7,96.1,0,10.9,1,21.8,1.9,32.6,1,11.8,2.3,23.6,3.8,35.3,1.4,10.9,3.5,21.8,4.8,32.7,1.1,9.2,3.1,18.7,1.9,27.6-2.8,20.8-18.8,36.4-41.8,31.8-12.4-2.5-20.7-11.6-25.2-23.1-2.9-7.4-4.2-15.5-5.7-23.3-2.2-11.8-4-23.7-5.7-35.6-1.5-10-2.4-20.2-3.9-30.2-5.3-35.7-3-71.6-3.2-107.4-0.1-9.8,0-19.7,1.7-29.3,1.9-10.9,1.2-22.4,7.5-32.4,7.2-11.4,19-21.1,35-18.4,10.9,1.8,19.1,8.6,24.6,18.2C237.16,285,239.46,293.51,238.66,302.51Z" style="fill:#5bba47"/><path d="M802,302.71c3.7,32,1.7,64.1,1.7,96.1,0,10.9-1,21.8-1.9,32.6-1,11.8-2.3,23.6-3.8,35.3-1.4,10.9-3.5,21.8-4.8,32.7-1.1,9.2-3.1,18.7-1.9,27.6,2.8,20.8,18.8,36.4,41.8,31.8,12.4-2.5,20.7-11.6,25.2-23.1,2.9-7.4,4.2-15.5,5.7-23.3,2.2-11.8,4-23.7,5.7-35.6,1.5-10,2.4-20.2,3.9-30.2,5.3-35.7,3-71.6,3.2-107.4,0.1-9.8,0-19.7-1.7-29.3-1.9-10.9-1.2-22.4-7.5-32.4-7.2-11.4-19-21.1-35-18.4-10.9,1.8-19.1,8.6-24.6,18.2A42.09,42.09,0,0,0,802,302.71Z" style="fill:#5bba47"/><path d="M279.06,1228.5c-2-5.1-3.9-10.2-5.9-15.3a11,11,0,0,0-1.9-2.5c-0.8.9-2.2,1.7-2.4,2.7-2.1,9.8-3.9,19.6-6.1,29.4-1.9,8.3-5.1,15.8-13.7,19.3-9.7,3.9-19.4.4-25.7-9.2-2.1-3.3-4.3-6.5-7-10.5-3.4,5.2-6.3,9.6-9.4,14-8.4,12-21.8,10.8-30.4.3a46.16,46.16,0,0,1-5.2-7.3c-1.6-3-3.2-2.4-5.6-1-3.8,2.2-7.6,4.8-11.8,5.8-7.4,1.7-12.4-3-16.8-8.2-1.7-2-3.1-3.5-6.2-1.6-7.3,4.5-13.2,3.8-19.6-2.1-10.4-9.5-16.2-21.6-20.4-34.9-4.2-13.1-4.1-26.3-3.6-39.7,0.1-2.1,1-4.2,1.8-7.5,10.4,12.2,21.9,20.6,36.3,25-1.3,4.4-2.6,8.4-3.5,12.5-0.7,3.1-.6,6.1,3.4,7.1,3.2,0.7,5.8.5,7-3.4,0.7-2.4,2.4-4.5,4.5-8.3,1.5,5.7,3,9.8,3.6,14,0.5,3.4,2.1,4,5,3.8,3.2-.2,5-1.5,4.9-4.9-0.1-4.5,0-9,0-13.5a10.8,10.8,0,0,1,.8-2.4c7.3,0.5,14.5,1.1,21.7,1.6,1.2,3.5,2.1,6.6,3.3,9.6s3.1,4.5,6.5,3.6c3-.9,4.6-2.4,3.5-5.7a3.4,3.4,0,0,1,0-2c0.3-1.7.8-3.3,1.2-5,1.7,0.8,3.6,1.4,4.9,2.6a89.46,89.46,0,0,1,5.9,6.8c5.8-3,8.6-6.1,4.7-11.9,31.9-6,52.2-25,63.9-54.4,8.1,4,12.9,10.8,16.7,18,5.1,9.6,8,19.9,9.9,30.8,2.2,13-.4,24.7-4.7,36.4-1.2,3.3-4.8,5.8-7.3,8.7A8.41,8.41,0,0,0,279.06,1228.5Z" style="fill:#fff"/><path d="M773.56,1133.91c11.7,30.7,32.4,49.4,63.6,55.6-0.6,2.5-1.6,4.4-1.3,6.2,0.6,4.1,5.1,5.4,8.3,2.7,2.8-2.2,5.5-4.5,8.2-6.8,0.5,0.1,1,.3,1.5.4,0,2.5.1,5.1,0,7.6-0.2,3.5,1.8,4.7,4.8,5.2s4.8-.6,5.5-3.6c0.5-2.2.7-5.2,2.2-6.4a26.35,26.35,0,0,1,9.3-4.3c2.5-.7,5.3-0.1,8-0.2,6.2-.2,7.4.8,7.3,7.3a34.41,34.41,0,0,1-1,6.3c-0.7,3.4.7,5.6,3.8,6.5,2.9,0.8,5.5.6,6.3-3.4,0.9-4.7,2.2-9.3,3.6-14.6,1.6,3.2,3.1,5.9,4.4,8.6,1.4,3,3.5,4.6,7,3.6s4.2-2.9,3.1-6.2-1.3-6.7-2.1-10c-0.8-2.9.8-4.6,3.1-5.3,12.2-3.8,22-11,30-20.8a15.21,15.21,0,0,1,2.4-1.9,17,17,0,0,1,1,3.4c0.7,4,1.7,8.1,1.7,12.2,0.1,3.5-1.3,7.1-1.4,10.6-0.4,14.3-4.6,27.5-11.4,39.9-4.3,7.8-9.7,14.8-18.1,18.9-4.7,2.3-9,2.6-13-.5-3.5-2.6-5.4-1.5-7.7,1.4-4.1,5.1-9.1,9.1-16.1,7.7a27.35,27.35,0,0,1-10.5-4.9c-3.7-2.8-5.5-2.2-7.9,1.5a43.87,43.87,0,0,1-8.6,10.1c-8.8,7.3-18.5,5.2-25.2-3.2-2.7-3.3-4.8-7.1-7.3-10.6-0.9-1.3-1.9-2.5-3.3-4.3-2.7,4-4.8,7.4-7.2,10.7-7.6,10.2-16.4,12.7-26.8,8.2-5.9-2.6-8.8-7.8-10.4-13.2-2.7-8.9-4.2-18.2-6.2-27.2-0.8-3.5-1.7-6.9-2.6-10.6-5.1.5-3.1,5.9-5.4,8.3-1.2,1.2-1.3,3.3-2,4.9-2.4,5.6-3.4,5.9-7.7,1.7a23.39,23.39,0,0,1-4.2-6.5c-4.6-10.1-4.4-20.9-4-31.6a72.26,72.26,0,0,1,16.7-43.8C766.36,1140.1,769.76,1137.5,773.56,1133.91Z" style="fill:#fff"/><path d="M161,483.9a16.52,16.52,0,0,1,1.6,3.4c2.5,14.6,4.6,29.2,7.6,43.7,2.1,10,7.4,18.6,14.6,25.9,1.1,1.2,2.5,2.1,4.6,4-14.4,3.2-27.7,5.1-41.2,2.9-8.1-1.3-16.5-1.9-24.1-4.8-9.6-3.6-18.7-8.8-27.6-14.1-13.6-8-23.3-19.9-30.2-34a136.69,136.69,0,0,1-12.8-40.8c-1.2-7.9.2-15,.7-22.5,0.7-11.2,11.1-24.2,21.8-26.7,10.2-2.4,20.7-3.8,31-5.6,4.3-.8,5.1,2.6,5.4,5.4,0.9,8.4.8,16.9,2.2,25.2,1.9,11.6,1.9,23.7,8.1,34.5,7.7,13.6,26,16.1,36.6,5.2A8.59,8.59,0,0,1,161,483.9Z" style="fill:#fff"/><path d="M877.06,488.4a16.53,16.53,0,0,0-1.6,3.4c-2.5,14.6-4.6,29.2-7.6,43.7-2.1,10-7.4,18.6-14.6,25.9-1.1,1.2-2.5,2.1-4.6,4,14.4,3.2,27.7,5.1,41.2,2.9,8.1-1.3,16.5-1.9,24.1-4.8,9.6-3.6,18.7-8.8,27.6-14.1,13.6-8,23.3-19.9,30.2-34a136.69,136.69,0,0,0,12.8-40.8c1.2-7.9-.2-15-0.7-22.5-0.7-11.2-11.1-24.2-21.8-26.7-10.2-2.4-20.7-3.8-31-5.6-4.3-.8-5.1,2.6-5.4,5.4-0.9,8.4-.8,16.9-2.2,25.2-1.9,11.6-1.9,23.7-8.1,34.5-7.7,13.6-26,16.1-36.6,5.2A8.6,8.6,0,0,0,877.06,488.4Z" style="fill:#fff"/><path d="M797.76,274.6c-20.5-43.4-44.6-83.5-76-119-18.8-21.2-39.5-40.2-63-56-21.2-14.3-43.9-26-68.4-33.8a228.28,228.28,0,0,0-92.8-9.6c-34.7,3.5-67.1,14.8-97.4,32.3a317.58,317.58,0,0,0-67.9,53,400.59,400.59,0,0,0-61.5,80.4c-10,17.3-19.5,34.9-29.1,52.1-2-2.8-4.6-6-6.8-9.4a4.55,4.55,0,0,1-.5-3.9c20.1-42,44.3-81.5,75.5-116.2,19.4-21.5,40.6-41.1,64.8-57.2,15.3-10.1,31.3-19,48.4-25.7,12.2-4.7,24.5-9.8,37.2-12.6a262.38,262.38,0,0,1,46.6-6.3,284.56,284.56,0,0,1,48.8,2.4,230.72,230.72,0,0,1,56.8,15.8c7.8,3.3,16,5.9,23.5,9.8,8.7,4.6,16.8,10.2,25.1,15.6a356.78,356.78,0,0,1,80.9,73.2,475,475,0,0,1,62.9,100.7c0.6,1.3.2,3.7-.5,5.1C802.56,268.3,800.26,271.1,797.76,274.6Z" style="fill:#5bba47"/><path d="M482,1147.4c16.5,6.3,25.9,17.7,29.6,34,2,8.7-3.1,19.6-10.3,23.7-3.5,2-5.2.6-6.8-1.9s-3.1-5.3-4.6-8h-1.7c-1.2,4.5-2.4,9-3.7,13.4-1.1,3.6-2.2,7.3-3.6,10.8-2.7,6.8-8.4,9.2-15.1,11-13,3.5-21.6-3.7-30.6-11.6-3.2,3.3-6.5,6.4-9.3,9.8-6.2,7.4-22.8,7.5-29.9,1-0.4-.3-0.7-0.7-1.1-1-4.2-3.5-7.8-5.9-14.1-2.4-7.8,4.4-16.4,3.5-24.2-1.8a8.06,8.06,0,0,0-6-1.2c-11.6,3.7-21.4.7-30.1-7.1-12.8-11.5-18-25.8-14.8-43.6,11.2,6.3,22.3,12.9,35.8,14.5-0.3,2-.3,4.2-1.1,6-1.5,3-.3,5,2.1,6.1,2.6,1.2,5.5,1.6,7.5-1.6,1.3-2,2.8-3.8,4.7-6.4,1.3,3.4,2,6.2,3.4,8.4,1,1.5,3.5,3.4,4.7,3,2.3-.7,6-0.7,5.6-5-0.2-2.8,0-5.6,0-8,6.7,0,12.8-.3,18.9.2a8.86,8.86,0,0,1,5.9,3.3c1.9,2.5,2.9,5.9,7.1,4.3,3.6-1.4,4.4-3.3,3.2-9.7,3.9,1.8,7.2,3,10,4.8,3.7,2.4,6.5,1.9,7.8-2.1s4.8-4.8,7.9-5.5c11.9-2.4,23.1-6.8,32.8-14C470.06,1164.8,477.46,1157.5,482,1147.4Z" style="fill:#fff"/><path d="M608.26,1218.7c-6.1,7-13.3,10.7-21.6,13-6.6,1.8-20.7-4.7-23.4-11.9-2.3-6.1-3.8-12.5-5.7-18.8-0.6-2-1.5-3.8-2.8-7.1-2.2,3.7-3.8,6.1-5.1,8.6-1.9,3.5-3.9,4.6-7.8,2.3-5.9-3.4-8.5-8.2-8.7-14.8-0.7-20.6,8.7-34.9,27.3-41.9,6.3,7,12.1,14.2,18.7,20.4,7.8,7.3,17.6,11.5,27.8,14.3,3,0.8,6.1,1.2,9,2.3,3.1,1.1,6.2,2.4,7.5,6.1s3.8,3.3,6.7,1.6,6.1-3.2,10.4-5.4c-0.2,3.6-.4,5.5-0.5,7.4,6.9,4.4,6.7,4.3,11-2a8.42,8.42,0,0,1,5.6-3c6.1-.4,12.3-0.1,18.9-0.1,1.3,4.2-3.1,12.4,5.9,13,6.6,0.4,4.4-7.5,8.3-10.8,1.4,1.7,3.3,3.2,4.2,5.1,1.7,3.7,4.4,3.2,7.1,2.1,2.9-1.1,3.8-3.4,2.7-6.5a27.38,27.38,0,0,1-1-3.9c12.3-5.3,24-10.4,35.9-15.6-0.2,1.4-.7,3.7-1,6-0.4,2.9-1.1,6-.8,8.9,1.2,10.4-3.7,18.3-10.4,25.2-7.4,7.7-16.1,12.7-27.3,11.3-0.8-.1-1.8.2-2.5-0.2-4.6-2.8-8.1-.4-12.3,1.7-7.8,4.1-16.1,3.6-23.6-.8-3.7-2.2-5.8-1.7-8.8,1.2-10.4,10.1-26.7,11.2-36.8-.6C613.26,1223.5,610.86,1221.4,608.26,1218.7Z" style="fill:#fff"/><path d="M920.76,396.3c-1,15.1-1.3,30.3-3.3,45.2-1.6,12.3-5.1,24.4-8.1,36.5-0.4,1.6-2.4,3.3-4.1,4-12.3,5.1-23.3-1.6-23.1-16.5,0.1-6.1,1.2-12.3,2.2-18.4,4.5-27.1,3.6-54.4,3.7-81.6a42.88,42.88,0,0,1,1.9-13.9c2-5.7,9.2-9.8,14-8.9,6.9,1.4,12.5,6.4,13.7,13.6a163.93,163.93,0,0,1,2,19.8c0.3,6.6.1,13.3,0.1,20C920.06,396.21,920.36,396.21,920.76,396.3Z" style="fill:#5bba47"/><path d="M152.26,388.4c0,10.7-.7,21.4.2,31.9,1.2,14.8,3.7,29.5,5.3,44.3,1.2,10.9-6.1,19.2-15.8,18.8-5.5-.2-12.7-6.5-14-12.2-8.1-34.5-9.8-69.5-7-104.8,0.5-6.8.2-14.2,6.6-19.4,4.4-3.6,8.8-5.7,14.5-3.2s9.4,6.7,9.7,12.5c0.6,10.6.2,21.3,0.2,31.9C152,388.4,152.06,388.4,152.26,388.4Z" style="fill:#5bba47"/><path d="M789.36,449.8q-4.65,33.75-9.6,70.3c-7.1-6.5-10.4-14.1-13.7-21.7-1.7-4-.4-6.9,1.6-10.3C775.26,475.3,782.36,462.21,789.36,449.8Z" style="fill:#fff"/><path d="M279.76,1133.3c-3.3-2.4-6.2-4.4-9-6.4-0.7-.5-1.9-1.4-1.8-1.9,1-4.3,2.2-8.5,3.3-12.8,0.5,0.1.9,0.1,1.4,0.2C275.66,1119.2,277.56,1126,279.76,1133.3Z" style="fill:#fff"/><path d="M258.76,503.6c1.9,4.1,4.3,8.1,5.3,12.5,0.5,2-1.9,4.7-3.4,8-1.1-7.6-1.9-14-2.8-20.3A5.08,5.08,0,0,1,258.76,503.6Z" style="fill:#fff"/><path d="M765.26,1128.91c1.4-3.8,2.4-6.7,3.5-9.6C772.26,1126.41,771.36,1126.41,765.26,1128.91Z" style="fill:#fff"/><path d="M411.16,599.3c-1.6-.1-6.1-1.2-6.9-1.3-10.4-.8-18.8-4-28.1-7.3-17.3-6.3-32.2-16.4-46-28.3-12.7-11-23.1-24.1-32.3-38.1a205.42,205.42,0,0,1-26.9-61.2,266.89,266.89,0,0,1-6.3-36.8,237.79,237.79,0,0,1-1.7-33.7,155.41,155.41,0,0,1,3.5-27.9c2.6-12.7,4.9-25.6,9.5-37.6a265.17,265.17,0,0,1,19.6-40.5,143.81,143.81,0,0,1,36.1-40.5,145.78,145.78,0,0,1,50.7-25.4c15.9-4.3,32-4.7,47.8-3.1,12.4,1.3,24.7,5.5,36.4,10,21.7,8.2,39.6,22.3,55.2,39.3,3.2,3.5,6.2,7.1,9,10.3,7.6-6.8,14.4-13.5,21.8-19.6a131.74,131.74,0,0,1,43.5-23.7c14-4.5,28.3-7.4,43-7.6,17.9-.3,35.2,3.8,51.9,10,22.7,8.5,41.5,22.7,57.1,40.7,11.8,13.6,21.2,29,26.7,46.3a191.64,191.64,0,0,1,7.3,31.7,177.51,177.51,0,0,1,1.8,31.7,144.91,144.91,0,0,1-8.2,41.5c-7.5,21.4-18.9,40.3-34.7,56.2-16.8,17-36.3,29.8-59.6,36.5-10.3,3-20.4,6-31.3,5.9-6.6-.1-13.2,1.2-19.1,1.7,3.5,10.5,7.9,22.1,10.9,34,1.6,6.1.9,12.9,1.2,19.4,0.9,24.3-9.2,44-26.4,60-14.8,13.7-32.9,20.8-53.2,21.8-16.1.7-31.9-.2-47.3-5.3-13-4.3-25-10.8-36.5-18.3a92.88,92.88,0,0,1-32.1-35.5c-1.3-2.5-2.1-5.2-3.4-8.3-5.1,1-10.5,2-15.8,3.1m103.2-307.2c-4.8-5.8-9.1-11.1-13.6-16.2-20.8-23.7-45.6-40.8-76.8-47.8a117.47,117.47,0,0,0-66.9,4.1c-18,6.4-33.5,16.5-47.2,29.4-21.2,20-35.2,44.7-44.7,71.9A190.74,190.74,0,0,0,272,393c-0.2,14.3,1.4,28.7,2.7,43,1.5,17,6.7,33,12.9,48.9a190.57,190.57,0,0,0,40.9,63.7,147.71,147.71,0,0,0,36,27.5c12.2,6.6,25.2,11.9,39.2,13.5,5.9,0.7,4.2-.6,17.7,2.1,10.3,2.1,11.2-1.7,20.7-.4-0.1-2.7-.2-4.5-0.3-6.3-0.4-5.7-.8-11.4-1.1-17.1a7.72,7.72,0,0,0-.2-1.5c-2.3-10,1-19.4,4.3-28.4,5.7-15.8,15.7-28.7,28.9-39.1a98.53,98.53,0,0,1,49-20.9c17.9-2.3,35.8-1.3,53.2,5.3,17.8,6.8,32.9,16.9,44.6,32a8.85,8.85,0,0,0,5,3.2c25.3,1.9,49.7-1.1,72.6-12.9a140.52,140.52,0,0,0,49.2-41.7c11.5-15.4,20-32.2,23.8-51.2,2.2-11.3,4.7-22.8,4.9-34.2a140.51,140.51,0,0,0-8.6-50.3,145.35,145.35,0,0,0-31.8-51.7,129,129,0,0,0-54.2-34.4,123.82,123.82,0,0,0-50.3-6c-13,1.2-25.7,3.2-37.7,8C568.56,253.9,547.76,269.51,531.56,292.21Zm7.3,192.8c-6.7.9-13.5,1.1-20,2.9-9.1,2.5-18.6,4.9-26.8,9.3-18.5,9.8-32.7,24.4-39.2,44.6-3.5,11-4.2,23-6.1,34.5a5.76,5.76,0,0,0,.6,3.4c3.2,7.4,6,15,9.8,22,16.4,29.7,43,43.3,75.6,46.4,6.9,0.7,14.1-1,21.2-1.5a74.48,74.48,0,0,0,30.9-9.6c26.3-14.9,43.2-36,44.5-67.5,1.1-25.9-9.7-46.4-28.9-62.4C582.86,492.21,562.16,485.1,538.86,485Z"/><path d="M538.46,881.8c-11.1.8-22.6-.8-33.1-6.2a41.4,41.4,0,0,1-11.6-9.7c-3.8-4.3-2-8.8,1.3-13,6.2-7.9,15.2-10.7,24.3-12.3,8.6-1.5,17.5-2.6,26.2-1.9,11.6,0.9,23.1,3,33.3,10.1,9,6.3,8.9,18.5-2,24.7A68.27,68.27,0,0,1,538.46,881.8Zm-12.8-34.4c-7.9,0-13.7,2.7-17.4,7.8-2.9,4-1.3,8.1,3.3,9.6,6,1.8,11.5.7,16.9-1.9,4.2-2,8.3-5.1,7.5-9.7C535.06,847.8,529.86,846.8,525.66,847.4Z"/><path d="M531.56,292.21c16.2-22.7,37.1-38.3,61.9-48.2,12-4.8,24.7-6.8,37.7-8a127.15,127.15,0,0,1,50.3,6,129.58,129.58,0,0,1,54.2,34.4,145.35,145.35,0,0,1,31.8,51.7,140.51,140.51,0,0,1,8.6,50.3c-0.2,11.4-2.7,22.9-4.9,34.2-3.7,18.9-12.3,35.7-23.8,51.2a140.36,140.36,0,0,1-49.2,41.7c-22.9,11.7-47.3,14.8-72.6,12.9-1.8-.1-3.9-1.7-5-3.2-11.7-15.1-26.8-25.2-44.6-32-17.4-6.6-35.3-7.6-53.2-5.3a99.82,99.82,0,0,0-49,20.9c-13.2,10.4-23.2,23.3-28.9,39.1-3.3,9-6.6,18.4-4.3,28.4,0.1,0.5.1,1,.2,1.5,0.4,5.7.8,11.4,1.1,17.1,0.1,1.8.2,3.6,0.3,6.3-7.2-1.8-13.3,3.4-20.7.6-5.4-2.1-11.7-1.6-17.6-2.3-14.1-1.6-27-6.9-39.2-13.5a145.83,145.83,0,0,1-36-27.5,189,189,0,0,1-40.9-63.7c-6.2-15.8-11.4-31.9-12.9-48.9-1.3-14.3-2.9-28.7-2.7-43a185.11,185.11,0,0,1,10.4-59.4c9.5-27.2,23.5-51.9,44.7-71.9,13.8-13,29.3-23,47.2-29.4a117.47,117.47,0,0,1,66.9-4.1c31.2,7,56,24.1,76.8,47.8C522.46,281.1,526.66,286.4,531.56,292.21ZM441.26,271c-4.6,1-12.2,2.2-19.5,4.5-30.1,9.7-44.9,36.1-46.7,62.5-1.1,17.3,1.8,34.4,7.5,50.7,7.2,20.8,19.4,37.7,41,45.6,15.3,5.6,30.7,6.1,45.5-2.5,15.4-8.9,24.7-22.7,31.8-38.3a147.52,147.52,0,0,0,10.6-34.6c3-16.5,3.1-32.5-4.5-47.8C494.06,285.4,473,272.51,441.26,271Zm106.2,75.7c1,5.5,2.2,14.5,4.2,23.3,4.1,18.2,12,34.5,26.2,47.2,14.4,12.7,31.6,15.6,49.6,11.9,12.3-2.5,21.4-11.4,28.1-21.8,13.2-20.4,18.2-43.3,17.8-67.3a58.71,58.71,0,0,0-3.6-19c-7.1-19.2-20.3-32.5-40.1-38.9-16.2-5.3-32.2-4.3-47.1,3.4C559.46,297.3,548.26,317.1,547.46,346.71Z" style="fill:#fff"/><path d="M538.86,485c23.3,0.1,44,7.3,61.6,22,19.2,16.1,30,36.6,28.9,62.4-1.4,31.5-18.2,52.7-44.5,67.5a71.25,71.25,0,0,1-30.9,9.6c-7.1.5-14.2,2.2-21.2,1.5-32.6-3.1-59.3-16.7-75.6-46.4-3.9-7-6.6-14.6-9.8-22a7.89,7.89,0,0,1-.6-3.4c1.9-11.5,2.6-23.5,6.1-34.5,6.5-20.2,20.7-34.8,39.2-44.6,8.3-4.4,17.7-6.9,26.8-9.3C525.36,486.1,532.16,485.9,538.86,485Z" style="fill:#fff"/><path d="M525.66,847.4c4.2-.6,9.3.4,10.3,5.7,0.8,4.6-3.2,7.7-7.5,9.7-5.4,2.6-10.9,3.7-16.9,1.9-4.7-1.4-6.2-5.6-3.3-9.6C512,850.1,517.76,847.4,525.66,847.4Z" style="fill:#fff"/><path d="M441.26,271c31.7,1.6,52.8,14.4,65.6,40.1,7.6,15.3,7.5,31.3,4.5,47.8a147.52,147.52,0,0,1-10.6,34.6c-7,15.6-16.4,29.5-31.8,38.3-14.8,8.5-30.2,8.1-45.5,2.5-21.5-7.9-33.7-24.8-41-45.6-5.7-16.4-8.6-33.4-7.5-50.7,1.7-26.4,16.6-52.8,46.7-62.5C429.06,273.1,436.66,272,441.26,271Zm-48,91.5c0.9-2.3,1.8-3.8,2.1-5.3,1.4-7.7,3.9-14.9,9.7-20.4a85.75,85.75,0,0,1,12.9-9.5c4.5-2.8,7.5-9.6,5.2-15.5-1.8-4.7-5.8-6.6-12.3-5.5a17.66,17.66,0,0,0-12.1,8.1c-4.9,7.5-7.6,15.8-9.8,24.5C387,347.21,387.46,354.6,393.26,362.51Zm46.6-74.2c-5.5-.8-11.9,4.5-11.6,11.8,0.3,6.6,6,12.3,12.3,12,6-.3,12-6.3,11.6-12.5C451.76,294.4,447.86,287.6,439.86,288.3Z"/><path d="M547.46,346.71c0.7-29.6,12-49.4,35.2-61.3,14.9-7.7,30.9-8.7,47.1-3.4,19.8,6.5,33,19.7,40.1,38.9a58.71,58.71,0,0,1,3.6,19c0.4,24-4.6,46.9-17.8,67.3-6.7,10.4-15.8,19.3-28.1,21.8-17.9,3.7-35.2.8-49.6-11.9s-22.1-28.9-26.2-47.2C549.76,361.21,548.46,352.21,547.46,346.71Zm19.2,19.6c0.5-2.6.9-4.5,1.3-6.3,1-4,1.7-8.1,3.2-11.8,2.8-7.2,8.4-12.2,14.6-16.5,4.9-3.5,6-7.8,3.3-13.3-2-4.2-6.1-5.6-11.6-4.2-6.6,1.7-10.5,6.4-12.4,12.3a102.39,102.39,0,0,0-4.7,22.5C560,354.6,560.06,361.1,566.66,366.3Zm36.1-49.9c6.5,0.1,10.7-4.1,10.8-10.7,0.2-6.1-5.2-11.8-10.9-11.6a11.09,11.09,0,0,0-10.4,11.1C592.16,311.51,596.66,316.3,602.76,316.4Z"/><path d="M393.26,362.51c-5.8-8-6.3-15.4-4.3-23.7,2.1-8.7,4.8-17,9.8-24.5a17.66,17.66,0,0,1,12.1-8.1c6.5-1.1,10.5.9,12.3,5.5a13.32,13.32,0,0,1-5.2,15.5,85.75,85.75,0,0,0-12.9,9.5c-5.8,5.4-8.3,12.7-9.7,20.4C395.16,358.8,394.26,360.21,393.26,362.51Z" style="fill:#fff"/><path d="M439.86,288.3c8.1-.7,12,6.1,12.3,11.3,0.4,6.2-5.6,12.2-11.6,12.5-6.3.3-12-5.4-12.3-12C428,292.71,434.36,287.51,439.86,288.3Z" style="fill:#fff"/><path d="M566.66,366.3c-6.6-5.1-6.7-11.6-6.3-17.4a102.4,102.4,0,0,1,4.7-22.5c1.9-5.8,5.7-10.6,12.4-12.3,5.5-1.4,9.6-.1,11.6,4.2,2.6,5.5,1.6,9.8-3.3,13.3-6.2,4.4-11.8,9.3-14.6,16.5-1.5,3.8-2.2,7.9-3.2,11.8C567.46,361.8,567.16,363.6,566.66,366.3Z" style="fill:#fff"/><path d="M602.76,316.4c-6.1-.1-10.6-4.9-10.5-11.2a11.16,11.16,0,0,1,10.4-11.1c5.7-.2,11,5.5,10.9,11.6C613.36,312.3,609.16,316.4,602.76,316.4Z" style="fill:#fff"/></svg>